<svg xmlns="http://www.w3.org/2000/svg" viewBox="25 25 370 370">
    <title>
        ClinkUp
    </title>
    <style>
        .primary{stroke:rgba(85,203,146,1); fill:none;} .shadow{stroke:rgba(45,71,58,1); fill:none;} .highlights{fill:rgba(255,255,255,1); opacity:0.7;} .bars{stroke-width:10;} .coin{stroke:black}
    </style>
    <g class="coin">
        <circle id="outline" cx="210" cy="210" r="184" fill="rgba(255,210,82,1)"/>
        <circle id="surface" cx="210" cy="210" r="180" fill="rgba(255,216,107,1)" stroke-width=".8"/>
    </g>
    <g class="shadow">
        <path id="top_shadow" stroke-width="36" d="M110 260c-5-78 18-107 45-128 33-27 80-29 128.5 -1"/>
        <path id="bottom_shadow" stroke-width="30" d="M290.4 293a100 100 0 0 1-58 37 96 85 0 0 1-107-60"/>
    </g>
    <g class="bars shadow">
        <path d="M 177 68 L 176 354" transform="matrix(1 0 0 1 14 3)"/>
        <path d="M 177 68 L 176 354" transform="matrix(1 0 0 1 52 3)"/>
    </g>
    <g class="bars primary">
        <path d="M 177 68 L 176 354" transform="matrix(1 0 0 1 12 0)"/>
        <path d="M 177 68 L 176 354" transform="matrix(1 0 0 1 50 0)"/>
    </g>
    <g class="c">
        <path stroke-width="40" d="M 195 328 C 175 349 147 361 116 361 C 56 361 6 312 6 251 C 6 190 56 141 116 141 C 147 141 175 154 195 174" class="primary" transform="matrix(1 0 0 1 94 -41)"/>
        <!-- <path fill="none" stroke="pink" stroke-width="40" d="M 195 328 C 175 349 147 361 116 361 C 56 361 6 312 6 251 C 6 190 56 141 116 141 C 147 141 175 154 195 174"/> -->
    </g>
    <g class="highlights">
        <g class="highlight-top">
            <ellipse cx="108" cy="107" rx="11" ry="41" transform="matrix(0.7 0.7 -0.7 0.7 106 -61)"/>
            <ellipse cx="36" cy="16" rx="4" ry="6" transform="rotate(50 3 156)"/>
            <ellipse cx="36" cy="27" rx="4" ry="10" transform="rotate(42 -47 189)"/>
        </g>
        <g class="highlight-bottom">
            <ellipse cx="36" cy="27" rx="4" ry="10" transform="rotate(35 -271 628)"/>
            <ellipse cx="46" cy="79" rx="5" ry="30" transform="rotate(50 -100 500)"/>
        </g>
    </g>
</svg>
