<svg xmlns="http://www.w3.org/2000/svg" viewBox="5 15 390 390">

    <g class="jvs-layer" jvs-layer-color="#ff7f00" name="Layer 1" >
        <ellipse cx="374.8902282714844" cy="226.7335968017578" fill="rgba(255,210,82,1)" stroke="#000000" stroke-dasharray="0." stroke-linecap="butt" stroke-linejoin="miter" stroke-width="1" class="locked" opacity="1" rx="184" ry="184" transform="matrix(1 0 0 1 -164.89 -16.7336)"/>
    </g>
    <g class="jvs-layer selected" jvs-layer-color="#fb0094" name="Layer" >
        <ellipse cx="293.369" cy="257.205" fill="rgba(255,216,107,1)" stroke=" rgb(0, 0, 0)" stroke-linecap="butt" stroke-linejoin="miter" stroke-width="0.8474470465972549" class="locked" opacity="1" rx="180" ry="180" transform="matrix(1 0 0 1 -83.3691 -47.2053)"/>
        <path fill="none" stroke="#000000" stroke-width="0.8474470465972549" d="M 401.9508103867281 231.76134094221334" class="locked" transform="matrix(1 0 0 1 -127.793 41.3555)"/>
        <ellipse cx="108.136" cy="107.143" fill="rgba(255,255,255,1)" stroke="rgba(85,203,146,0)" stroke-linecap="butt" stroke-linejoin="miter" stroke-width="0.8749508176800267" class="locked" opacity="1" rx="11.0279" ry="41.1517" transform="matrix(0.698498 0.715612 -0.715612 0.698498 105.998 -60.8878)"/>
        <path fill="rgba(255,255,255,0)" stroke="rgba(45,71,58,1)" stroke-dasharray="" stroke-dashoffset="350" stroke-width="19.73351673117435" d="M 180.46665954589844 285.0101013183594 C 161.97378540039062 302.6171569824219 136.24462890625 313.5349426269531 107.7933120727539 313.5349426269531 C 61.887550354003906 313.5349426269531 23.0684871673584 285.1123352050781 10.297292709350586 246.02853393554688" class="locked" transform="matrix(0.993145 -0.116891 0.116891 0.993145 84.6772 35.0031)"/>
        <path fill="rgba(255,255,255,0)" stroke="rgba(45,71,58,1)" stroke-dasharray="" stroke-dashoffset="350" stroke-width="36.33994349549395" d="M 24.672025383596992 304.19337482551293 C 46.805053389827066 253.45098359759874 87.90054703965754 219.36101295866655 134.94024658203125 219.3610382080078 C 170.55677795410156 219.36099243164062 202.76559448242188 238.904541015625 225.91587829589844 270.4223327636719" class="locked" transform="matrix(0.925203 -0.379472 0.379472 0.925203 -32.2205 -36.6476)"/>
        <path fill="rgba(255,255,255,0)" stroke="rgba(45,71,58,1)" stroke-dasharray="" stroke-dashoffset="350" stroke-width="36.33994349549395" d="M 24.672025383596992 304.19337482551293 C 46.805053389827066 253.45098359759874 87.90054703965754 219.36101295866655 134.94024658203125 219.3610382080078 C 170.55677795410156 219.36099243164062 202.76559448242188 238.904541015625 225.91587829589844 270.4223327636719" class="locked" transform="matrix(0.660682 -0.750666 0.750666 0.660682 -117.456 100.999)"/>
        <path fill="rgba(255,255,255,0)" stroke="rgba(45,71,58,1)" stroke-linecap="butt" stroke-linejoin="miter" stroke-width="10" d="M 177 68 L 176 354" opacity="1" transform="matrix(1 0 0 1 14.033 2.72748)"/>
        <path fill="rgba(255,255,255,0)" stroke="rgba(85,203,146,1)" stroke-linecap="butt" stroke-linejoin="miter" stroke-width="10" d="M 177 68 L 176 354" opacity="1" transform="matrix(1 0 0 1 12 3.37508e-14)"/>
        <path fill="rgba(255,255,255,0)" stroke="rgba(45,71,58,1)" stroke-linecap="butt" stroke-linejoin="miter" stroke-width="10" d="M 177 68 L 176 354" opacity="1" transform="matrix(1 0 0 1 52.0329 2.72748)"/>
        <path fill="rgba(255,255,255,0)" stroke="rgba(85,203,146,1)" stroke-linecap="butt" stroke-linejoin="miter" stroke-width="10" d="M 177 68 L 176 354" opacity="1" transform="matrix(1 0 0 1 50.0329 -0.272504)"/>
    </g>
    <g class="jvs-layer" jvs-layer-color="#ffff00" name="Layer 2" transform="matrix(1,0,0,1,0,0)">
        <path fill="rgba(255,255,255,0)" stroke="rgba(85,203,146,1)" stroke-dasharray="" stroke-dashoffset="350" stroke-width="40" d="M 194.72619202874264 328.2987769263053 C 174.7720909337953 348.58004450235785 147.00999337968537 361.1560363769531 116.31061553955078 361.1560363769531 C 55.55929305816352 361.1560363769531 6.310615539550788 311.9073588583404 6.310615539550781 251.15603637695312 C 6.310615539550774 190.40471389556586 55.55929305816351 141.15603637695312 116.31061553955078 141.15603637695312 C 147.01001281393758 141.15603637695312 174.77212608340588 153.7320441740258 194.72622992458594 174.01333434480142" class="locked" transform="matrix(1 0 0 1 93.9917 -40.7743)"/>
    </g>
</svg>
